<svg width="49" height="49" viewBox="0 0 49 49" fill="none" xmlns="http://www.w3.org/2000/svg">
<path d="M0.5 5C0.5 2.51472 2.51472 0.5 5 0.5H44C46.4853 0.5 48.5 2.51472 48.5 5V44C48.5 46.4853 46.4853 48.5 44 48.5H5C2.51472 48.5 0.5 46.4853 0.5 44V5Z" fill="white" stroke="#EFEEEA"/>
<path d="M35.4587 29.0903L32.515 26.1466C31.4637 25.0952 29.6764 25.5158 29.2558 26.8825C28.9404 27.8287 27.8891 28.3544 26.9429 28.1441C24.8402 27.6184 22.0016 24.8849 21.476 22.6771C21.1606 21.7309 21.7914 20.6796 22.7376 20.3642C24.1043 19.9437 24.5248 18.1564 23.4735 17.1051L20.5298 14.1613C19.6887 13.4254 18.4271 13.4254 17.6912 14.1613L15.6936 16.1589C13.6961 18.2615 15.9039 23.8336 20.8452 28.7749C25.7864 33.7162 31.3585 36.0291 33.4612 33.9264L35.4587 31.9289C36.1947 31.0878 36.1947 29.8262 35.4587 29.0903Z" fill="#DB783D"/>
</svg>
