<svg width="22" height="15" viewBox="0 0 22 15" fill="none" xmlns="http://www.w3.org/2000/svg">
<path d="M20.3524 0.310547H1.64764C0.737645 0.310547 0 1.04819 0 1.95818V5.11514H22V1.95818C22 1.04819 21.2624 0.310547 20.3524 0.310547Z" fill="#FAB446"/>
<path d="M0 13.0769C0 13.9868 0.737645 14.7245 1.64764 14.7245H20.3524C21.2623 14.7245 22 13.9869 22 13.0769V9.91992H0V13.0769Z" fill="#73AF00"/>
<path d="M0 5.11523H22V9.91957H0V5.11523Z" fill="#F5F5F5"/>
<path d="M10.9997 9.55608C9.87548 9.55608 8.96094 8.64153 8.96094 7.5173C8.96094 6.39306 9.87548 5.47852 10.9997 5.47852C12.124 5.47852 13.0385 6.39306 13.0385 7.5173C13.0385 8.64153 12.124 9.55608 10.9997 9.55608ZM10.9997 5.8578C10.0846 5.8578 9.34022 6.60215 9.34022 7.5173C9.34022 8.43245 10.0846 9.17679 10.9997 9.17679C11.9149 9.17679 12.6592 8.43245 12.6592 7.5173C12.6592 6.60215 11.9149 5.8578 10.9997 5.8578Z" fill="#41479B"/>
<path d="M11.0046 7.74741C11.1322 7.74741 11.2357 7.64393 11.2357 7.51629C11.2357 7.38864 11.1322 7.28516 11.0046 7.28516C10.8769 7.28516 10.7734 7.38864 10.7734 7.51629C10.7734 7.64393 10.8769 7.74741 11.0046 7.74741Z" fill="#41479B"/>
<path d="M10.9976 7.55248L10.4102 7.61177L9.14844 7.55248V7.48312L10.4102 7.42383L10.9976 7.48312V7.55248ZM10.9976 7.55248L11.5849 7.61177L12.8467 7.55248V7.48312L11.5849 7.42383L10.9976 7.48312V7.55248Z" fill="#41479B"/>
<path d="M10.9655 7.51709L10.9062 6.9297L10.9655 5.66797H11.0349L11.0942 6.9297L11.0349 7.51709H10.9655ZM10.9655 7.51709L10.9062 8.10447L10.9655 9.3662H11.0349L11.0942 8.10447L11.0349 7.51709H10.9655Z" fill="#41479B"/>
<path d="M10.9716 7.54207L10.5143 7.16871L9.66406 6.23457L9.71309 6.18555L10.6472 7.03581L11.0206 7.49309L10.9716 7.54207Z" fill="#41479B"/>
<path d="M10.9766 7.54117L11.3499 7.99845L12.2841 8.84871L12.3331 8.79968L11.4828 7.86554L11.0255 7.49219L10.9766 7.54117Z" fill="#41479B"/>
<path d="M10.9766 7.49309L11.3499 7.03581L12.2841 6.18555L12.3331 6.23457L11.4828 7.16871L11.0255 7.54207L10.9766 7.49309Z" fill="#41479B"/>
<path d="M10.9716 7.49414L10.5143 7.8675L9.66406 8.80164L9.71309 8.85066L10.6472 8.0004L11.0206 7.54313L10.9716 7.49414Z" fill="#41479B"/>
<path d="M11.0083 7.54848L10.4883 7.82804L9.29999 8.25609L9.27344 8.19203L10.4164 7.6544L10.9818 7.48438L11.0083 7.54848Z" fill="#41479B"/>
<path d="M11.0109 7.54906L11.5763 7.37904L12.7193 6.84141L12.6927 6.77734L11.5044 7.2054L10.9844 7.48495L11.0109 7.54906Z" fill="#41479B"/>
<path d="M10.9654 7.53178L10.6859 7.01177L10.2578 5.82343L10.3219 5.79688L10.8595 6.93989L11.0295 7.50523L10.9654 7.53178Z" fill="#41479B"/>
<path d="M10.9688 7.53046L11.1388 8.0958L11.6764 9.23881L11.7405 9.21226L11.3124 8.02391L11.0329 7.50391L10.9688 7.53046Z" fill="#41479B"/>
<path d="M10.9818 7.54906L10.4164 7.37904L9.27344 6.84141L9.29999 6.77734L10.4883 7.2054L11.0083 7.48495L10.9818 7.54906ZM10.9818 7.54906L11.5018 7.82862L12.6901 8.25667L12.7167 8.19261L11.5737 7.65498L11.0083 7.48495L10.9818 7.54906Z" fill="#41479B"/>
<path d="M10.9654 7.50523L11.1354 6.93989L11.6731 5.79688L11.7371 5.82343L11.3091 7.01177L11.0295 7.53178L10.9654 7.50523ZM10.9654 7.50523L10.6859 8.02523L10.2578 9.21358L10.3219 9.24013L10.8595 8.09712L11.0295 7.53178L10.9654 7.50523Z" fill="#41479B"/>
<path d="M10.9993 7.83059C11.1715 7.83059 11.3111 7.691 11.3111 7.51881C11.3111 7.34662 11.1715 7.20703 10.9993 7.20703C10.8271 7.20703 10.6875 7.34662 10.6875 7.51881C10.6875 7.691 10.8271 7.83059 10.9993 7.83059Z" fill="#F5F5F5"/>
<path d="M10.9995 7.70595C11.1027 7.70595 11.1864 7.62224 11.1864 7.51899C11.1864 7.41573 11.1027 7.33203 10.9995 7.33203C10.8962 7.33203 10.8125 7.41573 10.8125 7.51899C10.8125 7.62224 10.8962 7.70595 10.9995 7.70595Z" fill="#41479B"/>
</svg>
