<svg width="39" height="39" viewBox="0 0 39 39" fill="none" xmlns="http://www.w3.org/2000/svg">
<mask id="mask0_118_1720" style="mask-type:luminance" maskUnits="userSpaceOnUse" x="0" y="0" width="39" height="39">
<path d="M38.0504 19.0252C38.0504 21.5236 37.5583 23.9976 36.6021 26.3058C35.646 28.614 34.2447 30.7114 32.478 32.478C30.7114 34.2447 28.614 35.646 26.3058 36.6021C23.9976 37.5583 21.5236 38.0504 19.0252 38.0504C16.5268 38.0504 14.0528 37.5583 11.7446 36.6021C9.43632 35.646 7.339 34.2447 5.57234 32.478C3.80569 30.7114 2.40431 28.614 1.44821 26.3058C0.492102 23.9976 -3.72294e-08 21.5236 0 19.0252C0 13.9794 2.00443 9.14026 5.57234 5.57235C9.14026 2.00443 13.9794 0 19.0252 0C24.071 0 28.9101 2.00443 32.478 5.57235C36.0459 9.14026 38.0504 13.9794 38.0504 19.0252Z" fill="white"/>
</mask>
<g mask="url(#mask0_118_1720)">
<path d="M0.0078125 38.045V25.3633H38.0531V38.045H0.0078125Z" fill="#27AE60"/>
<path d="M0.0078125 25.3634V12.6816H38.0531V25.3634H0.0078125Z" fill="white"/>
<path d="M0.0078125 12.6818V0H38.0531V12.6818H0.0078125Z" fill="#F39C12"/>
<path d="M19.0229 24.573C22.086 24.573 24.5691 22.0899 24.5691 19.0268C24.5691 15.9636 22.086 13.4805 19.0229 13.4805C15.9597 13.4805 13.4766 15.9636 13.4766 19.0268C13.4766 22.0899 15.9597 24.573 19.0229 24.573Z" fill="#000088"/>
<path d="M19.0249 23.8798C21.7051 23.8798 23.8779 21.7071 23.8779 19.0268C23.8779 16.3466 21.7051 14.1738 19.0249 14.1738C16.3446 14.1738 14.1719 16.3466 14.1719 19.0268C14.1719 21.7071 16.3446 23.8798 19.0249 23.8798Z" fill="white"/>
<path d="M19.0253 19.9978C19.5613 19.9978 19.9959 19.5633 19.9959 19.0272C19.9959 18.4912 19.5613 18.0566 19.0253 18.0566C18.4892 18.0566 18.0547 18.4912 18.0547 19.0272C18.0547 19.5633 18.4892 19.9978 19.0253 19.9978Z" fill="#000088"/>
<path d="M23.8098 19.9016C23.9426 19.9191 24.0646 19.8257 24.0821 19.6928C24.0997 19.56 24.0062 19.438 23.8734 19.4205C23.7405 19.4029 23.6186 19.4964 23.601 19.6292C23.5835 19.7621 23.6769 19.884 23.8098 19.9016Z" fill="#000088"/>
<path d="M19.0258 23.8804L19.1922 20.9686L19.0258 19.582L18.8594 20.9686L19.0258 23.8804Z" fill="#000088"/>
<path d="M23.5223 21.1019C23.6461 21.1533 23.7881 21.0946 23.8395 20.9708C23.8908 20.8469 23.8321 20.7049 23.7083 20.6536C23.5845 20.6022 23.4425 20.6609 23.3911 20.7847C23.3398 20.9085 23.3985 21.0506 23.5223 21.1019Z" fill="#000088"/>
<path d="M17.8756 23.7076L18.7904 20.9375L18.9886 19.5548L18.4689 20.8513L17.8756 23.7076Z" fill="#000088"/>
<path d="M22.8184 22.1753C22.9247 22.2569 23.077 22.2369 23.1587 22.1306C23.2403 22.0244 23.2203 21.872 23.1141 21.7904C23.0078 21.7088 22.8555 21.7287 22.7738 21.835C22.6922 21.9413 22.7122 22.0936 22.8184 22.1753Z" fill="#000088"/>
<path d="M16.69 23.2295L18.29 20.791L18.8392 19.507L18.0018 20.6246L16.69 23.2295Z" fill="#000088"/>
<path d="M21.9027 23.0268C21.9842 23.1332 22.1365 23.1533 22.2429 23.0718C22.3493 22.9903 22.3695 22.838 22.288 22.7317C22.2065 22.6253 22.0542 22.6051 21.9478 22.6866C21.8414 22.7681 21.8212 22.9204 21.9027 23.0268Z" fill="#000088"/>
<path d="M15.7104 22.4591L17.8872 20.5183L18.7502 19.4204L17.652 20.2829L15.7104 22.4591Z" fill="#000088"/>
<path d="M20.6521 23.5972C20.7033 23.721 20.8452 23.7799 20.9691 23.7287C21.0929 23.6775 21.1518 23.5356 21.1006 23.4117C21.0493 23.2879 20.9074 23.229 20.7836 23.2802C20.6597 23.3315 20.6009 23.4734 20.6521 23.5972Z" fill="#000088"/>
<path d="M14.8216 21.4456L17.4265 20.1338L18.5441 19.2964L17.2601 19.8456L14.8216 21.4456Z" fill="#000088"/>
<path d="M19.4172 23.87C19.4346 24.0029 19.5564 24.0966 19.6893 24.0792C19.8222 24.0618 19.9158 23.9399 19.8984 23.807C19.881 23.6741 19.7592 23.5805 19.6263 23.5979C19.4934 23.6153 19.3998 23.7371 19.4172 23.87Z" fill="#000088"/>
<path d="M14.3353 20.2804L17.1915 19.688L18.4881 19.1686L17.1055 19.3665L14.3353 20.2804Z" fill="#000088"/>
<path d="M18.1511 23.8098C18.1336 23.9426 18.2271 24.0646 18.3599 24.0821C18.4928 24.0997 18.6147 24.0062 18.6323 23.8734C18.6498 23.7405 18.5564 23.6186 18.4235 23.601C18.2906 23.5835 18.1687 23.6769 18.1511 23.8098Z" fill="#000088"/>
<path d="M14.1704 19.0277L17.0822 19.1941L18.4688 19.0277L17.0822 18.8613L14.1704 19.0277Z" fill="#000088"/>
<path d="M16.9429 23.4112C16.8915 23.5349 16.9502 23.6769 17.074 23.7283C17.1978 23.7796 17.3398 23.7209 17.3911 23.5972C17.4425 23.4734 17.3838 23.3314 17.26 23.2801C17.1362 23.2287 16.9943 23.2874 16.9429 23.4112Z" fill="#000088"/>
<path d="M14.3363 17.7626L17.1056 18.6772L18.4879 18.8756L17.1918 18.3558L14.3363 17.7626Z" fill="#000088"/>
<path d="M15.9827 22.7308C15.9011 22.8371 15.921 22.9894 16.0273 23.071C16.1336 23.1527 16.2859 23.1327 16.3676 23.0264C16.4492 22.9201 16.4292 22.7678 16.323 22.6862C16.2167 22.6045 16.0643 22.6245 15.9827 22.7308Z" fill="#000088"/>
<path d="M14.9284 16.6004L17.3669 18.2004L18.6509 18.7496L17.5333 17.9122L14.9284 16.6004Z" fill="#000088"/>
<path d="M15.0355 21.7878C14.9291 21.8693 14.909 22.0217 14.9905 22.1281C15.0721 22.2345 15.2244 22.2546 15.3308 22.173C15.4372 22.0915 15.4573 21.9391 15.3758 21.8328C15.2942 21.7264 15.1419 21.7062 15.0355 21.7878Z" fill="#000088"/>
<path d="M15.6077 15.595L17.5495 17.7722L18.6479 18.6353L17.7849 17.5369L15.6077 15.595Z" fill="#000088"/>
<path d="M14.5356 20.652C14.4117 20.7033 14.3528 20.8452 14.4041 20.969C14.4553 21.0929 14.5972 21.1518 14.7211 21.1005C14.8449 21.0493 14.9038 20.9074 14.8526 20.7836C14.8014 20.6597 14.6594 20.6008 14.5356 20.652Z" fill="#000088"/>
<path d="M16.6911 14.8153L18.0029 17.4205L18.8403 18.5383L18.2911 17.2541L16.6911 14.8153Z" fill="#000088"/>
<path d="M14.2901 19.4213C14.1572 19.4387 14.0636 19.5606 14.081 19.6935C14.0984 19.8264 14.2202 19.92 14.3531 19.9026C14.486 19.8852 14.5796 19.7634 14.5622 19.6305C14.5448 19.4976 14.423 19.4039 14.2901 19.4213Z" fill="#000088"/>
<path d="M17.8837 14.3414L18.4761 17.1976L18.9955 18.4942L18.7976 17.1116L17.8837 14.3414Z" fill="#000088"/>
<path d="M14.2371 18.1531C14.1042 18.1355 13.9823 18.229 13.9647 18.3619C13.9472 18.4947 14.0406 18.6167 14.1735 18.6342C14.3064 18.6518 14.4283 18.5583 14.4459 18.4255C14.4634 18.2926 14.37 18.1707 14.2371 18.1531Z" fill="#000088"/>
<path d="M19.0211 14.1743L18.8547 17.0861L19.0211 18.4727L19.1875 17.0861L19.0211 14.1743Z" fill="#000088"/>
<path d="M14.6337 16.9469C14.5099 16.8955 14.3679 16.9543 14.3165 17.0781C14.2652 17.2019 14.3239 17.3439 14.4477 17.3953C14.5715 17.4466 14.7135 17.3879 14.7649 17.2641C14.8163 17.1403 14.7575 16.9983 14.6337 16.9469Z" fill="#000088"/>
<path d="M20.2804 14.3412L19.3656 17.1113L19.1674 18.494L19.6872 17.1975L20.2804 14.3412Z" fill="#000088"/>
<path d="M15.322 15.8814C15.2157 15.7998 15.0633 15.8197 14.9817 15.926C14.9001 16.0323 14.92 16.1846 15.0263 16.2663C15.1326 16.3479 15.2849 16.3279 15.3666 16.2216C15.4482 16.1154 15.4282 15.963 15.322 15.8814Z" fill="#000088"/>
<path d="M21.4504 14.8271L19.8504 17.2656L19.3012 18.5496L20.1386 17.432L21.4504 14.8271Z" fill="#000088"/>
<path d="M16.261 15.0277C16.1795 14.9214 16.0272 14.9012 15.9208 14.9828C15.8144 15.0643 15.7943 15.2166 15.8758 15.323C15.9573 15.4294 16.1097 15.4495 16.216 15.368C16.3224 15.2865 16.3426 15.1341 16.261 15.0277Z" fill="#000088"/>
<path d="M22.4534 15.5964L20.2765 17.538L19.4136 18.6362L20.5118 17.7733L22.4534 15.5964Z" fill="#000088"/>
<path d="M17.4024 14.4575C17.3512 14.3336 17.2093 14.2747 17.0854 14.3259C16.9616 14.3772 16.9027 14.5191 16.9539 14.6429C17.0051 14.7668 17.147 14.8257 17.2709 14.7745C17.3947 14.7232 17.4536 14.5813 17.4024 14.4575Z" fill="#000088"/>
<path d="M23.2333 16.609L20.6281 17.9208L19.5103 18.7582L20.7945 18.2091L23.2333 16.609Z" fill="#000088"/>
<path d="M18.6373 14.1846C18.6199 14.0517 18.498 13.9581 18.3651 13.9755C18.2322 13.9929 18.1386 14.1148 18.156 14.2477C18.1734 14.3806 18.2952 14.4742 18.4281 14.4568C18.561 14.4394 18.6547 14.3175 18.6373 14.1846Z" fill="#000088"/>
<path d="M23.7191 17.7743L20.8629 18.3667L19.5663 18.8861L20.949 18.6882L23.7191 17.7743Z" fill="#000088"/>
<path d="M19.9035 14.2449C19.9211 14.1121 19.8276 13.9901 19.6948 13.9726C19.5619 13.955 19.44 14.0485 19.4224 14.1813C19.4049 14.3142 19.4983 14.4361 19.6312 14.4537C19.764 14.4712 19.886 14.3778 19.9035 14.2449Z" fill="#000088"/>
<path d="M23.8843 19.027L20.9725 18.8606L19.5859 19.027L20.9725 19.1934L23.8843 19.027Z" fill="#000088"/>
<path d="M21.1115 14.6358C21.1629 14.512 21.1042 14.37 20.9804 14.3186C20.8566 14.2672 20.7145 14.3259 20.6631 14.4497C20.6117 14.5735 20.6704 14.7155 20.7942 14.7669C20.918 14.8183 21.0601 14.7596 21.1115 14.6358Z" fill="#000088"/>
<path d="M23.7191 20.2854L20.9491 19.3699L19.5663 19.1713L20.8628 19.6914L23.7191 20.2854Z" fill="#000088"/>
<path d="M22.1655 15.3239C22.2472 15.2176 22.2272 15.0653 22.1209 14.9836C22.0146 14.902 21.8623 14.922 21.7806 15.0283C21.699 15.1345 21.719 15.2869 21.8253 15.3685C21.9316 15.4502 22.0839 15.4302 22.1655 15.3239Z" fill="#000088"/>
<path d="M23.2202 21.4543L20.7814 19.8543L19.4973 19.3051L20.615 20.1425L23.2202 21.4543Z" fill="#000088"/>
<path d="M23.027 16.2631C23.1334 16.1816 23.1536 16.0292 23.072 15.9228C22.9905 15.8164 22.8381 15.7962 22.7317 15.8778C22.6253 15.9593 22.6052 16.1117 22.6867 16.2181C22.7682 16.3245 22.9206 16.3447 23.027 16.2631Z" fill="#000088"/>
<path d="M22.4544 22.4584L20.5129 20.2808L19.4146 19.4175L20.2775 20.5161L22.4544 22.4584Z" fill="#000088"/>
<path d="M23.605 17.3987C23.7289 17.3475 23.7877 17.2056 23.7365 17.0817C23.6853 16.9579 23.5434 16.899 23.4195 16.9502C23.2957 17.0015 23.2368 17.1434 23.2881 17.2672C23.3393 17.391 23.4812 17.4499 23.605 17.3987Z" fill="#000088"/>
<path d="M21.4495 23.235L20.1377 20.6301L19.3003 19.5125L19.8495 20.7965L21.4495 23.235Z" fill="#000088"/>
<path d="M23.8661 18.6334C23.999 18.616 24.0927 18.4941 24.0753 18.3612C24.0579 18.2283 23.936 18.1347 23.8031 18.1521C23.6702 18.1695 23.5766 18.2913 23.594 18.4242C23.6114 18.5571 23.7332 18.6508 23.8661 18.6334Z" fill="#000088"/>
<path d="M20.2726 23.7133L19.6802 20.8571L19.1608 19.5605L19.3587 20.9431L20.2726 23.7133Z" fill="#000088"/>
</g>
</svg>
