<svg width="49" height="49" viewBox="0 0 49 49" fill="none" xmlns="http://www.w3.org/2000/svg">
<path d="M0.5 5C0.5 2.51472 2.51472 0.5 5 0.5H44C46.4853 0.5 48.5 2.51472 48.5 5V44C48.5 46.4853 46.4853 48.5 44 48.5H5C2.51472 48.5 0.5 46.4853 0.5 44V5Z" fill="white" stroke="#EFEEEA"/>
<path d="M25.9953 27.0133C25.4839 27.3542 24.8899 27.5344 24.2775 27.5344C23.6651 27.5344 23.0711 27.3542 22.5597 27.0133L14.1369 21.3979C14.0904 21.3668 14.0447 21.3344 14 21.3008V30.5023C14 31.5572 14.8561 32.3945 15.8922 32.3945H32.6627C33.7177 32.3945 34.555 31.5384 34.555 30.5023V21.3008C34.5102 21.3345 34.4644 21.3669 34.4178 21.398L25.9953 27.0133Z" fill="#DB783D"/>
<path d="M14.8049 20.3961L23.2278 26.0115C23.5466 26.2241 23.9121 26.3304 24.2775 26.3304C24.6429 26.3304 25.0084 26.2241 25.3272 26.0115L33.7501 20.3961C34.2541 20.0602 34.555 19.4982 34.555 18.8916C34.555 17.8485 33.7064 17 32.6634 17H15.8916C14.8486 17 14 17.8486 14 18.8926C13.9997 19.1902 14.073 19.4832 14.2135 19.7455C14.3539 20.0078 14.5571 20.2313 14.8049 20.3961Z" fill="#DB783D"/>
</svg>
