<svg width="17" height="17" viewBox="0 0 17 17" fill="none" xmlns="http://www.w3.org/2000/svg">
<path d="M7.63332 0.00320513C5.60988 0.0065951 3.67028 0.811378 2.23949 2.24123C0.808704 3.67108 0.0033922 5.6094 0 7.63151C0.00169112 9.65533 0.806048 11.596 2.23684 13.0282C3.66763 14.4605 5.60818 15.2676 7.63332 15.2726C9.42939 15.2726 11.0843 14.6412 12.3929 13.5963L15.5713 16.7727C15.7323 16.9223 15.9451 17.0037 16.165 16.9999C16.3848 16.996 16.5946 16.9072 16.7503 16.752C16.9059 16.5969 16.9954 16.3875 16.9998 16.1678C17.0043 15.9481 16.9233 15.7352 16.7741 15.5739L13.5956 12.3944C14.6812 11.0452 15.273 9.36594 15.2731 7.63472C15.2731 3.42953 11.8413 0.00320513 7.63332 0.00320513ZM7.63332 1.70195C10.924 1.70195 13.5732 4.34621 13.5732 7.63151C13.5732 10.9168 10.924 13.5771 7.63332 13.5771C4.34265 13.5771 1.69665 10.9264 1.69665 7.63792C1.69665 4.34942 4.34265 1.70195 7.63332 1.70195Z" fill="#424241"/>
</svg>
