<svg width="38" height="38" viewBox="0 0 38 38" fill="none" xmlns="http://www.w3.org/2000/svg">
<path d="M0.0853452 20.7774H37.9162V20.778H0.0853452V20.7774ZM2.05575 10.4052H35.9443V10.4057H2.05575V10.4052ZM0.708131 13.8621H37.2907V13.8626H0.708131V13.8621ZM8.166 34.6058H29.8343L29.8355 34.6046H8.16479L8.166 34.6058ZM18.9999 0C18.6267 0 18.2564 0.0134778 17.8889 0.0344967H20.1111C19.7433 0.0134778 19.3731 0 18.9999 0ZM0.078125 17.3197H37.921V17.3203H0.078125V17.3197Z" fill="#C42126"/>
<path d="M24.614 6.9486H33.6868C32.6091 5.63668 31.3567 4.47534 29.9691 3.49219H23.1562C23.72 4.48401 24.2048 5.65433 24.614 6.9486Z" fill="#E7E7E7"/>
<path d="M23.1631 3.49245H29.976C27.1595 1.49653 23.7781 0.246629 20.1163 0.0351562H19.5312C21.2548 0.252084 22.0465 1.52766 23.1631 3.49245Z" fill="#DC3027"/>
<path d="M37.2933 13.8627C36.9587 12.6691 36.5073 11.5113 35.9457 10.4062H25.5078C25.7193 11.516 25.8862 12.6752 26.0097 13.8627H37.2933Z" fill="#E7E7E7"/>
<path d="M24.916 10.4062H35.9406C35.3124 9.17049 34.5576 8.01091 33.6852 6.94922H24.0547C24.3943 8.02415 24.6826 9.18372 24.916 10.4062Z" fill="#DC3027"/>
<path d="M26.4062 20.777H37.913C37.9676 20.1923 37.9985 19.5997 37.9985 19.0009C37.9985 18.4342 37.9688 17.8747 37.9202 17.3203H26.409C26.4466 18.4722 26.4457 19.6251 26.4062 20.777Z" fill="#E7E7E7"/>
<path d="M37.9221 17.3197C37.8196 16.1505 37.6086 14.9934 37.2918 13.8633H25.5234C25.6416 14.9952 25.7197 16.1532 25.7578 17.3197H37.9221Z" fill="#DC3027"/>
<path d="M25.3047 27.6913H35.8913C36.4608 26.587 36.9196 25.429 37.2612 24.2344H25.8165C25.6905 25.4236 25.5194 26.5826 25.3047 27.6913Z" fill="#E7E7E7"/>
<path d="M37.2614 24.2338C37.5852 23.1044 37.803 21.9472 37.9117 20.7773H26.0462C26.0057 21.9447 25.9253 23.1024 25.8047 24.2338H37.2614Z" fill="#DC3027"/>
<path d="M29.8306 34.6048C31.2382 33.6256 32.5084 32.4631 33.6032 31.1484H24.6885C24.2718 32.4481 23.7771 33.6166 23.2031 34.6048H29.8306Z" fill="#E7E7E7"/>
<path d="M24.3571 31.1484H33.6072C34.4899 30.0879 35.2561 28.9283 35.8936 27.6914H25.2293C24.9926 28.9148 24.7013 30.0749 24.3571 31.1484ZM18.3105 37.9876C18.2721 37.9864 18.2337 37.9847 18.1953 37.9835C18.2337 37.9846 18.2722 37.9864 18.3105 37.9876ZM18.9991 38.0011C23.0273 38.0011 26.7596 36.7437 29.8335 34.6062H22.9571C21.7366 36.7089 20.9314 38.0011 18.9991 38.0011Z" fill="#DC3027"/>
<path d="M19.001 38.0018C18.7703 38.0018 18.5411 37.9964 18.3125 37.9883C18.5435 37.9961 18.7729 38.0018 19.001 38.0018Z" fill="#C42126"/>
<path d="M23.7802 3.49219H8.02271C6.6349 4.47534 5.38267 5.6366 4.30469 6.9486H25.2377C24.8285 5.65433 24.344 4.48401 23.7802 3.49219Z" fill="#F3F4F5"/>
<path d="M8.03125 3.49245H23.7888C22.6719 1.52766 21.2513 0.252084 19.5278 0.0351562H17.8906C14.2288 0.246629 10.8474 1.49653 8.03125 3.49245Z" fill="#E73625"/>
<path d="M0.710938 13.8627H26.6099C26.4863 12.6749 26.3195 11.516 26.1081 10.4062H2.05856C1.49692 11.5113 1.04553 12.6691 0.710938 13.8627Z" fill="#F3F4F5"/>
<path d="M4.30981 6.94727C3.43801 8.00896 2.68261 9.16845 2.05469 10.4042H26.1039C25.8707 9.18201 25.5825 8.02252 25.2428 6.94727H4.30981Z" fill="#E73625"/>
<path d="M0 19.0007C0 19.5995 0.0312075 20.192 0.0855197 20.7767H26.8398C26.8794 19.6277 26.88 18.4699 26.8425 17.3203H0.0782995C0.0296832 17.8745 0 18.434 0 19.0007Z" fill="#F3F4F5"/>
<path d="M0.078125 17.3197H26.842C26.8048 16.1651 26.7267 15.0123 26.6077 13.8633H0.708131C0.391268 14.9934 0.180355 16.1505 0.078125 17.3197Z" fill="#E73625"/>
<path d="M26.6046 24.2344H0.742188C1.08382 25.429 1.54267 26.587 2.11203 27.6913H26.0928C26.3076 26.5828 26.4783 25.4239 26.6046 24.2344Z" fill="#F3F4F5"/>
<path d="M0.736321 24.2338H26.5987C26.7191 23.1024 26.7997 21.9444 26.8402 20.7773H0.0859375C0.194862 21.9472 0.412598 23.1043 0.736321 24.2338Z" fill="#E73625"/>
<path d="M8.17101 34.6048H23.7354C24.3093 33.6163 24.8043 32.4481 25.2207 31.1484H4.39844C5.49527 32.4645 6.76418 33.6271 8.17101 34.6048Z" fill="#F3F4F5"/>
<path d="M2.10938 27.6914C2.74692 28.9283 3.51307 30.0879 4.3957 31.1484H25.218C25.5618 30.075 25.8531 28.9148 26.0898 27.6914H2.10938ZM18.1996 37.9835C18.238 37.9847 18.2764 37.9864 18.3148 37.9876C18.5434 37.9957 18.7726 38.0011 19.0033 38.0011C20.9357 38.0011 22.5113 36.709 23.732 34.6062H8.16948C11.0373 36.6008 14.4796 37.8284 18.1996 37.9835Z" fill="#E73625"/>
<path d="M18.6047 0.0078125C8.86805 0.205888 0.932199 7.72368 0.078125 17.2864H18.605V0.0078125H18.6047Z" fill="#283991"/>
<path d="M3.80301 10.7648L4.09246 11.6561H5.03029L4.2716 12.2073L4.56138 13.0992L3.80301 12.5477L3.04488 13.0992L3.3341 12.2073L2.57565 11.6561H3.51348L3.80301 10.7648ZM3.80301 13.9137L4.09246 14.8056H5.03029L4.2716 15.3567L4.56138 16.2487L3.80301 15.6972L3.04488 16.2487L3.3341 15.3567L2.57565 14.8056H3.51348L3.80301 13.9137ZM6.95248 6.04029L7.24201 6.93191H8.17952L7.42107 7.48337L7.7106 8.37467L6.95248 7.82385L6.19403 8.37467L6.48356 7.48337L5.7248 6.93191H6.66263L6.95248 6.04029ZM6.95248 9.18976L7.24201 10.0814H8.17952L7.42107 10.6322L7.7106 11.5241L6.95248 10.9733L6.19403 11.5241L6.48356 10.6322L5.7248 10.0814H6.66263L6.95248 9.18976ZM6.95248 12.3392L7.24201 13.2312H8.17952L7.42107 13.7817L7.7106 14.6736L6.95248 14.1222L6.19403 14.6736L6.48356 13.7817L5.7248 13.2312H6.66263L6.95248 12.3392ZM1.41191 14.6736L1.12213 13.7817L1.88058 13.2308H0.943314L0.922295 13.1658C0.819509 13.4852 0.725583 13.8075 0.640625 14.1321L0.653862 14.1222L1.41191 14.6736ZM3.04488 9.94973L3.80301 9.39834L4.56146 9.94973L4.27168 9.05779L5.03013 8.5064H4.0923L3.80277 7.6151L3.51324 8.5064H3.16763C3.10345 8.60363 3.04135 8.70143 2.97894 8.80011L3.33418 9.05779L3.04488 9.94973ZM6.95248 4.67438L7.7106 5.2252L7.42107 4.33391L8.1792 3.78252H7.63768C7.17799 4.12601 6.7342 4.49028 6.30771 4.87422L6.19339 5.2252L6.95248 4.67438ZM9.3435 3.65079L10.1019 3.0994L10.8601 3.65079L10.5705 2.75885L11.3287 2.20803H10.3912L10.3518 2.08801C10.0342 2.2503 9.71976 2.41918 9.41249 2.59888L9.63271 2.75877L9.3435 3.65079ZM10.1019 4.46588L10.3915 5.35693H11.329L10.5705 5.90832L10.8601 6.80026L10.1019 6.24879L9.3435 6.80026L9.63303 5.90832L8.87435 5.35693H9.81209L10.1019 4.46588ZM10.1019 7.61534L10.3915 8.5064H11.329L10.5705 9.05779L10.8601 9.94973L10.1019 9.39826L9.3435 9.94973L9.63303 9.05779L8.87435 8.5064H9.81209L10.1019 7.61534ZM10.1019 10.7648L10.3915 11.6561H11.329L10.5705 12.2073L10.8601 13.0992L10.1019 12.5477L9.3435 13.0992L9.63303 12.2073L8.87435 11.6561H9.81209L10.1019 10.7648ZM10.1019 13.9137L10.3915 14.8056H11.329L10.5705 15.3567L10.8601 16.2487L10.1019 15.6972L9.3435 16.2487L9.63303 15.3567L8.87435 14.8056H9.81209L10.1019 13.9137ZM13.2514 2.89082L13.5409 3.78244H14.4785L13.7203 4.33391L14.0095 5.2252L13.2514 4.67438L12.4927 5.2252L12.7825 4.33391L12.0238 3.78244H12.9616L13.2514 2.89082ZM13.2514 6.04029L13.5409 6.93191H14.4785L13.7203 7.48337L14.0095 8.37467L13.2514 7.82385L12.4927 8.37467L12.7825 7.48337L12.0238 6.93191H12.9616L13.2514 6.04029ZM13.2514 9.18976L13.5409 10.0814H14.4785L13.7203 10.6322L14.0095 11.5241L13.2514 10.9733L12.4927 11.5241L12.7825 10.6322L12.0238 10.0814H12.9616L13.2514 9.18976ZM13.2514 12.3392L13.5409 13.2312H14.4785L13.7203 13.7817L14.0095 14.6736L13.2514 14.1222L12.4927 14.6736L12.7825 13.7817L12.0238 13.2312H12.9616L13.2514 12.3392ZM16.4009 1.31641L16.6904 2.20803H17.6279L16.8695 2.75885L17.159 3.65079L16.4009 3.09932L15.6422 3.65079L15.932 2.75885L15.1733 2.20803H16.1108L16.4009 1.31641ZM16.4009 4.46588L16.6904 5.35693H17.6279L16.8695 5.90832L17.159 6.80026L16.4009 6.24879L15.6422 6.80026L15.932 5.90832L15.1733 5.35693H16.1108L16.4009 4.46588ZM16.4009 7.61534L16.6904 8.5064H17.6279L16.8695 9.05779L17.159 9.94973L16.4009 9.39826L15.6422 9.94973L15.932 9.05779L15.1733 8.5064H16.1108L16.4009 7.61534ZM16.4009 10.7648L16.6904 11.6561H17.6279L16.8695 12.2073L17.159 13.0992L16.4009 12.5477L15.6422 13.0992L15.932 12.2073L15.1733 11.6561H16.1108L16.4009 10.7648ZM16.4009 13.9137L16.6904 14.8056H17.6279L16.8695 15.3567L17.159 16.2487L16.4009 15.6972L15.6422 16.2487L15.932 15.3567L15.1733 14.8056H16.1108L16.4009 13.9137Z" fill="#EFEFEF"/>
</svg>
