<svg width="22" height="22" viewBox="0 0 22 22" fill="none" xmlns="http://www.w3.org/2000/svg">
<path d="M0 22L1.892 16.3244C0.931966 14.7097 0.37931 12.8252 0.37931 10.8103C0.37931 4.84 5.21931 0 11.1897 0C17.16 0 22 4.84 22 10.8103C22 16.7807 17.16 21.6207 11.1897 21.6207C9.37314 21.6207 7.66245 21.1704 6.16 20.3792L0 22Z" fill="#2CB742"/>
<path d="M18.0896 14.4079C17.5904 13.4645 15.7496 12.3858 15.7496 12.3858C15.3331 12.1483 14.8305 12.1218 14.5931 12.5451C14.5931 12.5451 13.9949 13.2623 13.8428 13.3655C13.1479 13.8362 12.5042 13.818 11.8545 13.1683L10.3444 11.6582L8.83439 10.1482C8.18463 9.49845 8.16642 8.85476 8.63715 8.15986C8.74032 8.00776 9.4576 7.40959 9.4576 7.40959C9.88091 7.17176 9.85436 6.66955 9.61691 6.25307C9.61691 6.25307 8.53815 4.41228 7.5948 3.9131C7.19349 3.70069 6.70077 3.77503 6.37987 4.09593L5.71305 4.76276C3.59763 6.87817 4.63922 9.26631 6.75463 11.3817L8.68798 13.3151L10.6213 15.2484C12.7367 17.3638 15.1249 18.4054 17.2403 16.29L17.9071 15.6232C18.228 15.3015 18.302 14.8088 18.0896 14.4079Z" fill="white"/>
</svg>
